<?xml version="1.0" encoding="UTF-8" standalone="no"?>
<svg
   version="1.1"
   viewBox="0 0 19.999999 20"
   id="svg12"
   width="20"
   height="20"
   xmlns:xlink="http://www.w3.org/1999/xlink"
   xmlns="http://www.w3.org/2000/svg"
   xmlns:svg="http://www.w3.org/2000/svg">
  <defs
     id="defs16">
    <linearGradient
       id="linearGradient886">
      <stop
         style="stop-color:#3771c8;stop-opacity:1"
         offset="0"
         id="stop882" />
      <stop
         style="stop-color:#2ca089;stop-opacity:1"
         offset="1"
         id="stop884" />
    </linearGradient>
    <linearGradient
       xlink:href="#linearGradient886"
       id="linearGradient11474"
       gradientUnits="userSpaceOnUse"
       gradientTransform="matrix(0.46303176,0,0,0.46303176,-56.588306,251.53577)"
       x1="225.77231"
       y1="173.93456"
       x2="1111.1683"
       y2="173.93456" />
    <linearGradient
       xlink:href="#linearGradient1160"
       id="linearGradient1094-2"
       gradientUnits="userSpaceOnUse"
       gradientTransform="matrix(0.4787416,0,0,0.4787416,-61.976132,260.06994)"
       x1="239.09921"
       y1="174.31239"
       x2="855.43896"
       y2="174.31239" />
    <linearGradient
       id="linearGradient1160">
      <stop
         style="stop-color:#0d6eff;stop-opacity:1"
         offset="0"
         id="stop1156" />
      <stop
         style="stop-color:#45da64;stop-opacity:1"
         offset="1"
         id="stop1158" />
    </linearGradient>
    <linearGradient
       xlink:href="#linearGradient1160"
       id="linearGradient1207"
       gradientUnits="userSpaceOnUse"
       gradientTransform="matrix(0.4787416,0,0,0.4787416,-61.976131,260.06994)"
       x1="239.09921"
       y1="174.31239"
       x2="855.43896"
       y2="174.31239" />
    <linearGradient
       xlink:href="#linearGradient1160"
       id="linearGradient1422"
       gradientUnits="userSpaceOnUse"
       gradientTransform="matrix(0.4787416,0,0,0.4787416,-61.976131,260.06994)"
       x1="239.09921"
       y1="174.31239"
       x2="855.43896"
       y2="174.31239" />
    <linearGradient
       xlink:href="#linearGradient1160"
       id="linearGradient1894"
       x1="2.0547221"
       y1="11.898932"
       x2="22.003138"
       y2="11.898932"
       gradientUnits="userSpaceOnUse" />
    <linearGradient
       xlink:href="#linearGradient1160"
       id="linearGradient1896"
       gradientUnits="userSpaceOnUse"
       x1="2.0547221"
       y1="11.898932"
       x2="22.003138"
       y2="11.898932" />
    <linearGradient
       xlink:href="#linearGradient1160"
       id="linearGradient1898"
       gradientUnits="userSpaceOnUse"
       x1="2.0547221"
       y1="11.898932"
       x2="22.003138"
       y2="11.898932" />
  </defs>
  <g
     style="fill:url(#linearGradient1894);fill-opacity:1"
     id="g1536"
     transform="rotate(-7.5543076,-4.229105,27.416548)">
    <path
       fill="#5588ff"
       d="M 11,20.85 A 0.92,0.92 0 0 1 9.9,21.78 10,10 0 0 1 2.06,13 C 2,12.45 2.46,12 3.01,12 h 3 a 1,1 0 0 1 1,1 3,3 0 0 0 3,3 1,1 0 0 1 1,1 v 3.85 z m 6,-1.92 c 0,0.77 0.83,1.23 1.42,0.74 a 10,10 0 0 0 2.03,-2.32 C 20.84,16.74 20.36,16 19.64,16 H 18 a 1,1 0 0 0 -1,1 z M 12,2 a 10,10 0 0 1 6.65,2.53 C 19.26,5.08 18.82,6 18,6 H 17.85 A 2.85,2.85 0 0 0 15,8.85 c 0,0.33 -0.18,0.62 -0.47,0.77 l -0.08,0.04 a 1,1 0 0 1 -0.9,0 L 13.47,9.62 A 0.85,0.85 0 0 1 13,8.85 2.85,2.85 0 0 0 10.15,6 H 10 A 1,1 0 0 1 9,5 V 3.2 C 9,2.76 9.28,2.36 9.7,2.26 10.45,2.1 11.22,2 12,2"
       id="path1524"
       style="fill:url(#linearGradient1896);fill-opacity:1" />
    <path
       fill="#5588ff"
       d="M 3.42,10 C 2.79,10 2.32,9.42 2.52,8.82 3.12,7.02 4.22,5.46 5.64,4.29 6.2,3.82 7,4.26 7,5 a 3,3 0 0 0 3,3 h 0.15 C 10.62,8 11,8.38 11,8.85 c 0,1.09 0.61,2.07 1.58,2.56 l 0.08,0.04 a 3,3 0 0 0 2.68,0 l 0.08,-0.04 A 2.85,2.85 0 0 0 17,8.85 C 17,8.38 17.38,8 17.85,8 h 2.66 c 0.4,0 0.77,0.23 0.9,0.6 a 10,10 0 0 1 0.52,4.6 0.94,0.94 0 0 1 -0.95,0.8 H 18 a 3,3 0 0 0 -3,3 v 3.8 c 0,0.44 -0.28,0.84 -0.7,0.94 l -0.2,0.04 A 0.92,0.92 0 0 1 13,20.85 V 17 A 3,3 0 0 0 10,14 1,1 0 0 1 9,13 3,3 0 0 0 6,10 Z"
       id="path1526"
       style="fill:url(#linearGradient1898);fill-opacity:1" />
  </g>
</svg>
