<?xml version="1.0" encoding="UTF-8" standalone="no"?>
<svg
   version="1.1"
   viewBox="0 0 264.99999 265"
   id="svg12"
   width="265"
   height="265"
   xmlns:xlink="http://www.w3.org/1999/xlink"
   xmlns="http://www.w3.org/2000/svg"
   xmlns:svg="http://www.w3.org/2000/svg">
  <defs
     id="defs16">
    <linearGradient
       id="linearGradient886">
      <stop
         style="stop-color:#3771c8;stop-opacity:1"
         offset="0"
         id="stop882" />
      <stop
         style="stop-color:#2ca089;stop-opacity:1"
         offset="1"
         id="stop884" />
    </linearGradient>
    <linearGradient
       xlink:href="#linearGradient886"
       id="linearGradient11474"
       gradientUnits="userSpaceOnUse"
       gradientTransform="matrix(0.46303176,0,0,0.46303176,-56.588306,251.53577)"
       x1="225.77231"
       y1="173.93456"
       x2="1111.1683"
       y2="173.93456" />
    <linearGradient
       xlink:href="#linearGradient1160"
       id="linearGradient1094-2"
       gradientUnits="userSpaceOnUse"
       gradientTransform="matrix(0.4787416,0,0,0.4787416,-61.976132,260.06994)"
       x1="239.09921"
       y1="174.31239"
       x2="855.43896"
       y2="174.31239" />
    <linearGradient
       id="linearGradient1160">
      <stop
         style="stop-color:#0d6eff;stop-opacity:1"
         offset="0"
         id="stop1156" />
      <stop
         style="stop-color:#45da64;stop-opacity:1"
         offset="1"
         id="stop1158" />
    </linearGradient>
    <linearGradient
       xlink:href="#linearGradient1160"
       id="linearGradient1207"
       gradientUnits="userSpaceOnUse"
       gradientTransform="matrix(0.4787416,0,0,0.4787416,-61.976131,260.06994)"
       x1="239.09921"
       y1="174.31239"
       x2="855.43896"
       y2="174.31239" />
    <linearGradient
       xlink:href="#linearGradient1160"
       id="linearGradient1422"
       gradientUnits="userSpaceOnUse"
       gradientTransform="matrix(0.4787416,0,0,0.4787416,-61.976131,260.06994)"
       x1="239.09921"
       y1="174.31239"
       x2="855.43896"
       y2="174.31239" />
    <linearGradient
       id="linearGradient5186">
      <stop
         style="stop-color:#ef2008;stop-opacity:1"
         offset="0"
         id="stop5182" />
      <stop
         style="stop-color:#ff6428;stop-opacity:1"
         offset="1"
         id="stop5184" />
    </linearGradient>
    <linearGradient
       xlink:href="#linearGradient886"
       id="linearGradient1052"
       x1="86.866272"
       y1="23.198954"
       x2="172.55573"
       y2="23.198954"
       gradientUnits="userSpaceOnUse"
       gradientTransform="translate(9.4814661,103.7365)" />
    <linearGradient
       xlink:href="#linearGradient1160"
       id="linearGradient1130"
       x1="-9.4814663"
       y1="28.546984"
       x2="255.08549"
       y2="28.546984"
       gradientUnits="userSpaceOnUse"
       gradientTransform="translate(9.4814661,103.7365)" />
  </defs>
  <path
     d="m 149.5975,150.93545 h -33.84189 v -4.59212 q 0,-7.68756 3.09166,-13.59496 3.09543,-5.99811 13.03181,-15.18615 l 6.00189,-5.43874 q 5.34425,-4.87559 7.78205,-9.18425 2.53228,-4.316219 2.53228,-8.62866 0,-6.56126 -4.50142,-10.216063 -4.49764,-3.753071 -12.56315,-3.753071 -7.59685,0 -16.40693,3.189922 -8.81386,3.091653 -18.376065,9.27874 V 63.375137 q 11.346145,-3.938268 20.719375,-5.812914 9.37323,-1.874645 18.0926,-1.874645 22.87748,0 34.87748,9.373228 12,9.28252 12,27.189922 0,9.184252 -3.65858,16.497642 -3.65481,7.21889 -12.46867,15.56409 l -5.99811,5.34047 q -6.37606,5.81292 -8.34519,9.37323 -1.96536,3.46961 -1.96536,7.68756 z m -33.84189,13.87465 h 33.84189 v 33.37323 h -33.84189 z"
     style="line-height:1;-inkscape-font-specification:'DejaVu Sans Bold';fill:#b7cdee;fill-opacity:1"
     font-style="normal"
     font-variant="normal"
     font-weight="700"
     font-stretch="normal"
     font-size="50.8px"
     font-family="'DejaVu Sans'"
     display="inline"
     fill="#808080"
     fill-opacity="1"
     stroke-width="0.999999"
     id="path2" />
  <path
     id="circle4"
     style="fill:none;stroke:#b7cdee;stroke-width:37.7953;stroke-opacity:1"
     d="M 245.66932,132.28348 A 113.38583,113.38583 0 0 1 132.28349,245.66932 113.38583,113.38583 0 0 1 18.89765,132.28348 113.38583,113.38583 0 0 1 132.28349,18.89765 113.38583,113.38583 0 0 1 245.66932,132.28348 Z" />
</svg>
